<svg version="1.1" width="600" height="600" xmlns="http://www.w3.org/2000/svg" viewBox="-1800 -1800 3600 3600">
<g transform="scale(1, -1)">
<rect x="-1800" y="-1800" width="600" height="600" fill="#444444"/>
<rect x="-1800" y="-1200" width="600" height="600" fill="#333333"/>
<rect x="-1800" y="-600" width="600" height="600" fill="#444444"/>
<rect x="-1800" y="0" width="600" height="600" fill="#333333"/>
<rect x="-1800" y="600" width="600" height="600" fill="#444444"/>
<rect x="-1800" y="1200" width="600" height="600" fill="#333333"/>
<rect x="-1200" y="-1800" width="600" height="600" fill="#333333"/>
<rect x="-1200" y="-1200" width="600" height="600" fill="#444444"/>
<rect x="-1200" y="-600" width="600" height="600" fill="#333333"/>
<rect x="-1200" y="0" width="600" height="600" fill="#444444"/>
<rect x="-1200" y="600" width="600" height="600" fill="#333333"/>
<rect x="-1200" y="1200" width="600" height="600" fill="#444444"/>
<rect x="-600" y="-1800" width="600" height="600" fill="#444444"/>
<rect x="-600" y="-1200" width="600" height="600" fill="#333333"/>
<rect x="-600" y="-600" width="600" height="600" fill="#444444"/>
<rect x="-600" y="0" width="600" height="600" fill="#333333"/>
<rect x="-600" y="600" width="600" height="600" fill="#444444"/>
<rect x="-600" y="1200" width="600" height="600" fill="#333333"/>
<rect x="0" y="-1800" width="600" height="600" fill="#333333"/>
<rect x="0" y="-1200" width="600" height="600" fill="#444444"/>
<rect x="0" y="-600" width="600" height="600" fill="#333333"/>
<rect x="0" y="0" width="600" height="600" fill="#444444"/>
<rect x="0" y="600" width="600" height="600" fill="#333333"/>
<rect x="0" y="1200" width="600" height="600" fill="#444444"/>
<rect x="600" y="-1800" width="600" height="600" fill="#444444"/>
<rect x="600" y="-1200" width="600" height="600" fill="#333333"/>
<rect x="600" y="-600" width="600" height="600" fill="#444444"/>
<rect x="600" y="0" width="600" height="600" fill="#333333"/>
<rect x="600" y="600" width="600" height="600" fill="#444444"/>
<rect x="600" y="1200" width="600" height="600" fill="#333333"/>
<rect x="1200" y="-1800" width="600" height="600" fill="#333333"/>
<rect x="1200" y="-1200" width="600" height="600" fill="#444444"/>
<rect x="1200" y="-600" width="600" height="600" fill="#333333"/>
<rect x="1200" y="0" width="600" height="600" fill="#444444"/>
<rect x="1200" y="600" width="600" height="600" fill="#333333"/>
<rect x="1200" y="1200" width="600" height="600" fill="#444444"/>
<line x1="-1490" y1="-1800" x2="-1490" y2="1800" stroke="#cccccc" stroke-width="25"/>
<line x1="-30" y1="-1800" x2="-30" y2="1800" stroke="#cccccc" stroke-width="25"/>
<line x1="30" y1="-1800" x2="30" y2="1800" stroke="#cccccc" stroke-width="25"/>
<line x1="1490" y1="-1800" x2="1490" y2="1800" stroke="#cccccc" stroke-width="25"/>
<line x1="-1800" y1="-1490" x2="-1490" y2="-1800" stroke="#cccccc" stroke-width="25"/>
<line x1="1800" y1="-1490" x2="1490" y2="-1800" stroke="#cccccc" stroke-width="25"/>
<line x1="-1800" y1="1490" x2="-1490" y2="1800" stroke="#cccccc" stroke-width="25"/>
<line x1="1800" y1="1490" x2="1490" y2="1800" stroke="#cccccc" stroke-width="25"/>
<rect x="-420" y="-420" width="840" height="840" transform="rotate(45)" stroke="#cccc55" fill="none" stroke-width="51"/>
<polygon points="-1710,0 -1735,43 -1785,43 -1810,0 -1785,-43 -1735,-43" fill="#cc5555" stroke="#000000" stroke-width="3"/>
<polygon points="1810,0 1785,43 1735,43 1710,0 1735,-43 1785,-43" fill="#5555cc" stroke="#000000" stroke-width="3"/>
<polygon points="50,1760 25,1803 -25,1803 -50,1760 -25,1717 25,1717" fill="#cccc55" stroke="#000000" stroke-width="3"/>
<polygon points="50,-600 25,-557 -25,-557 -50,-600 -25,-643 25,-643" fill="#cccc55" stroke="#000000" stroke-width="3"/>
<polygon points="50,-1760 25,-1717 -25,-1717 -50,-1760 -25,-1803 25,-1803" fill="#cccc55" stroke="#000000" stroke-width="3"/>
<polygon points="-474,600 -537,709 -663,709 -726,600 -663,491 -537,491" fill="#cccc55" stroke="#000000" stroke-width="3"/>
<polygon points="-500,600 -550,686 -650,686 -700,600 -650,514 -550,514" fill="#333333" stroke="#000000" stroke-width="3"/>
<polygon points="-550,600 -575,643 -625,643 -650,600 -625,557 -575,557" fill="#cccc55" stroke="#000000" stroke-width="3"/>
<polygon points="726,600 663,709 537,709 474,600 537,491 663,491" fill="#cccc55" stroke="#000000" stroke-width="3"/>
<polygon points="700,600 650,686 550,686 500,600 550,514 650,514" fill="#333333" stroke="#000000" stroke-width="3"/>
<polygon points="650,600 625,643 575,643 550,600 575,557 625,557" fill="#cccc55" stroke="#000000" stroke-width="3"/>
<polygon points="-474,-600 -537,-491 -663,-491 -726,-600 -663,-709 -537,-709" fill="#cccc55" stroke="#000000" stroke-width="3"/>
<polygon points="-500,-600 -550,-514 -650,-514 -700,-600 -650,-686 -550,-686" fill="#333333" stroke="#000000" stroke-width="3"/>
<polygon points="-550,-600 -575,-557 -625,-557 -650,-600 -625,-643 -575,-643" fill="#cccc55" stroke="#000000" stroke-width="3"/>
<polygon points="726,-600 663,-491 537,-491 474,-600 537,-709 663,-709" fill="#cccc55" stroke="#000000" stroke-width="3"/>
<polygon points="700,-600 650,-514 550,-514 500,-600 550,-686 650,-686" fill="#333333" stroke="#000000" stroke-width="3"/>
<polygon points="650,-600 625,-557 575,-557 550,-600 575,-643 625,-643" fill="#cccc55" stroke="#000000" stroke-width="3"/>
<polygon points="126,-1200 63,-1091 -63,-1091 -126,-1200 -63,-1309 63,-1309" fill="#cccc55" stroke="#000000" stroke-width="3"/>
<polygon points="100,-1200 50,-1114 -50,-1114 -100,-1200 -50,-1286 50,-1286" fill="#333333" stroke="#000000" stroke-width="3"/>
<polygon points="50,-1200 25,-1157 -25,-1157 -50,-1200 -25,-1243 25,-1243" fill="#cccc55" stroke="#000000" stroke-width="3"/>
<path d="M 1690,1690 l -63,63 a 89,89 0 0,0 126,0 z" fill="#cc7777"/>
<path d="M 1690,1690 l 63,63 a 89,89 0 0,0 0,-126 z" fill="#7777cc"/>
<path d="M 1690,1690 l 63,-63 a 89,89 0 0,0 -126,0 z" fill="#cc7777"/>
<path d="M 1690,1690 l -63,-63 a 89,89 0 0,0 0,126 z" fill="#7777cc"/>
<circle cx="1690" cy="1690" r="63" stroke="#cc5555" fill="none" stroke-width="51"/>
<circle cx="1690" cy="1690" r="89" fill="none" stroke="#000000" stroke-width="3"/>
<circle cx="1690" cy="1690" r="38" fill="none" stroke="#000000" stroke-width="3"/>
<path d="M 1690,-1690 l -63,63 a 89,89 0 0,0 126,0 z" fill="#cc7777"/>
<path d="M 1690,-1690 l 63,63 a 89,89 0 0,0 0,-126 z" fill="#7777cc"/>
<path d="M 1690,-1690 l 63,-63 a 89,89 0 0,0 -126,0 z" fill="#cc7777"/>
<path d="M 1690,-1690 l -63,-63 a 89,89 0 0,0 0,126 z" fill="#7777cc"/>
<circle cx="1690" cy="-1690" r="63" stroke="#cc5555" fill="none" stroke-width="51"/>
<circle cx="1690" cy="-1690" r="89" fill="none" stroke="#000000" stroke-width="3"/>
<circle cx="1690" cy="-1690" r="38" fill="none" stroke="#000000" stroke-width="3"/>
<path d="M -1690,1690 l -63,63 a 89,89 0 0,0 126,0 z" fill="#7777cc"/>
<path d="M -1690,1690 l 63,63 a 89,89 0 0,0 0,-126 z" fill="#cc7777"/>
<path d="M -1690,1690 l 63,-63 a 89,89 0 0,0 -126,0 z" fill="#7777cc"/>
<path d="M -1690,1690 l -63,-63 a 89,89 0 0,0 0,126 z" fill="#cc7777"/>
<circle cx="-1690" cy="1690" r="63" stroke="#5555cc" fill="none" stroke-width="51"/>
<circle cx="-1690" cy="1690" r="89" fill="none" stroke="#000000" stroke-width="3"/>
<circle cx="-1690" cy="1690" r="38" fill="none" stroke="#000000" stroke-width="3"/>
<path d="M -1690,-1690 l -63,63 a 89,89 0 0,0 126,0 z" fill="#7777cc"/>
<path d="M -1690,-1690 l 63,63 a 89,89 0 0,0 0,-126 z" fill="#cc7777"/>
<path d="M -1690,-1690 l 63,-63 a 89,89 0 0,0 -126,0 z" fill="#7777cc"/>
<path d="M -1690,-1690 l -63,-63 a 89,89 0 0,0 0,126 z" fill="#cc7777"/>
<circle cx="-1690" cy="-1690" r="63" stroke="#5555cc" fill="none" stroke-width="51"/>
<circle cx="-1690" cy="-1690" r="89" fill="none" stroke="#000000" stroke-width="3"/>
<circle cx="-1690" cy="-1690" r="38" fill="none" stroke="#000000" stroke-width="3"/>
<path d="M 1,1280 a 89,89 0 1,0 178,0" fill="#cc7777"/>
<path d="M 1,1280 a 89,89 0 1,1 178,0" fill="#7777cc"/>
<circle cx="90" cy="1280" r="63" stroke="#cc5555" fill="none" stroke-width="51"/>
<circle cx="90" cy="1280" r="89" fill="none" stroke="#000000" stroke-width="3"/>
<circle cx="90" cy="1280" r="38" fill="none" stroke="#000000" stroke-width="3"/>
<path d="M 511,1200 a 89,89 0 1,0 178,0" fill="#cc7777"/>
<path d="M 511,1200 a 89,89 0 1,1 178,0" fill="#7777cc"/>
<circle cx="600" cy="1200" r="63" stroke="#cc5555" fill="none" stroke-width="51"/>
<circle cx="600" cy="1200" r="89" fill="none" stroke="#000000" stroke-width="3"/>
<circle cx="600" cy="1200" r="38" fill="none" stroke="#000000" stroke-width="3"/>
<path d="M 1,1100 a 89,89 0 1,0 178,0" fill="#cc7777"/>
<path d="M 1,1100 a 89,89 0 1,1 178,0" fill="#7777cc"/>
<circle cx="90" cy="1100" r="63" stroke="#cc5555" fill="none" stroke-width="51"/>
<circle cx="90" cy="1100" r="89" fill="none" stroke="#000000" stroke-width="3"/>
<circle cx="90" cy="1100" r="38" fill="none" stroke="#000000" stroke-width="3"/>
<path d="M -1289,0 a 89,89 0 1,0 178,0" fill="#cc7777"/>
<path d="M -1289,0 a 89,89 0 1,1 178,0" fill="#7777cc"/>
<circle cx="-1200" cy="0" r="63" stroke="#cc5555" fill="none" stroke-width="51"/>
<circle cx="-1200" cy="0" r="89" fill="none" stroke="#000000" stroke-width="3"/>
<circle cx="-1200" cy="0" r="38" fill="none" stroke="#000000" stroke-width="3"/>
<path d="M 511,-1200 a 89,89 0 1,0 178,0" fill="#cc7777"/>
<path d="M 511,-1200 a 89,89 0 1,1 178,0" fill="#7777cc"/>
<circle cx="600" cy="-1200" r="63" stroke="#cc5555" fill="none" stroke-width="51"/>
<circle cx="600" cy="-1200" r="89" fill="none" stroke="#000000" stroke-width="3"/>
<circle cx="600" cy="-1200" r="38" fill="none" stroke="#000000" stroke-width="3"/>
<path d="M -179,1280 a 89,89 0 1,0 178,0" fill="#7777cc"/>
<path d="M -179,1280 a 89,89 0 1,1 178,0" fill="#cc7777"/>
<circle cx="-90" cy="1280" r="63" stroke="#5555cc" fill="none" stroke-width="51"/>
<circle cx="-90" cy="1280" r="89" fill="none" stroke="#000000" stroke-width="3"/>
<circle cx="-90" cy="1280" r="38" fill="none" stroke="#000000" stroke-width="3"/>
<path d="M -689,1200 a 89,89 0 1,0 178,0" fill="#7777cc"/>
<path d="M -689,1200 a 89,89 0 1,1 178,0" fill="#cc7777"/>
<circle cx="-600" cy="1200" r="63" stroke="#5555cc" fill="none" stroke-width="51"/>
<circle cx="-600" cy="1200" r="89" fill="none" stroke="#000000" stroke-width="3"/>
<circle cx="-600" cy="1200" r="38" fill="none" stroke="#000000" stroke-width="3"/>
<path d="M -179,1100 a 89,89 0 1,0 178,0" fill="#7777cc"/>
<path d="M -179,1100 a 89,89 0 1,1 178,0" fill="#cc7777"/>
<circle cx="-90" cy="1100" r="63" stroke="#5555cc" fill="none" stroke-width="51"/>
<circle cx="-90" cy="1100" r="89" fill="none" stroke="#000000" stroke-width="3"/>
<circle cx="-90" cy="1100" r="38" fill="none" stroke="#000000" stroke-width="3"/>
<path d="M 1111,0 a 89,89 0 1,0 178,0" fill="#7777cc"/>
<path d="M 1111,0 a 89,89 0 1,1 178,0" fill="#cc7777"/>
<circle cx="1200" cy="0" r="63" stroke="#5555cc" fill="none" stroke-width="51"/>
<circle cx="1200" cy="0" r="89" fill="none" stroke="#000000" stroke-width="3"/>
<circle cx="1200" cy="0" r="38" fill="none" stroke="#000000" stroke-width="3"/>
<path d="M -689,-1200 a 89,89 0 1,0 178,0" fill="#7777cc"/>
<path d="M -689,-1200 a 89,89 0 1,1 178,0" fill="#cc7777"/>
<circle cx="-600" cy="-1200" r="63" stroke="#5555cc" fill="none" stroke-width="51"/>
<circle cx="-600" cy="-1200" r="89" fill="none" stroke="#000000" stroke-width="3"/>
<circle cx="-600" cy="-1200" r="38" fill="none" stroke="#000000" stroke-width="3"/>
<circle cx="90" cy="90" r="63" stroke="#cc5555" fill="none" stroke-width="51"/>
<circle cx="90" cy="90" r="89" fill="none" stroke="#000000" stroke-width="3"/>
<circle cx="90" cy="90" r="38" fill="none" stroke="#000000" stroke-width="3"/>
<circle cx="1490" cy="0" r="63" stroke="#cc5555" fill="none" stroke-width="51"/>
<circle cx="1490" cy="0" r="89" fill="none" stroke="#000000" stroke-width="3"/>
<circle cx="1490" cy="0" r="38" fill="none" stroke="#000000" stroke-width="3"/>
<circle cx="90" cy="-90" r="63" stroke="#cc5555" fill="none" stroke-width="51"/>
<circle cx="90" cy="-90" r="89" fill="none" stroke="#000000" stroke-width="3"/>
<circle cx="90" cy="-90" r="38" fill="none" stroke="#000000" stroke-width="3"/>
<circle cx="1200" cy="-1200" r="63" stroke="#cc5555" fill="none" stroke-width="51"/>
<circle cx="1200" cy="-1200" r="89" fill="none" stroke="#000000" stroke-width="3"/>
<circle cx="1200" cy="-1200" r="38" fill="none" stroke="#000000" stroke-width="3"/>
<circle cx="-90" cy="90" r="63" stroke="#5555cc" fill="none" stroke-width="51"/>
<circle cx="-90" cy="90" r="89" fill="none" stroke="#000000" stroke-width="3"/>
<circle cx="-90" cy="90" r="38" fill="none" stroke="#000000" stroke-width="3"/>
<circle cx="-1490" cy="0" r="63" stroke="#5555cc" fill="none" stroke-width="51"/>
<circle cx="-1490" cy="0" r="89" fill="none" stroke="#000000" stroke-width="3"/>
<circle cx="-1490" cy="0" r="38" fill="none" stroke="#000000" stroke-width="3"/>
<circle cx="-90" cy="-90" r="63" stroke="#5555cc" fill="none" stroke-width="51"/>
<circle cx="-90" cy="-90" r="89" fill="none" stroke="#000000" stroke-width="3"/>
<circle cx="-90" cy="-90" r="38" fill="none" stroke="#000000" stroke-width="3"/>
<circle cx="-1200" cy="-1200" r="63" stroke="#5555cc" fill="none" stroke-width="51"/>
<circle cx="-1200" cy="-1200" r="89" fill="none" stroke="#000000" stroke-width="3"/>
<circle cx="-1200" cy="-1200" r="38" fill="none" stroke="#000000" stroke-width="3"/>
<polyline points="-1497,-597 -497,-597 -497,-597 -1029,-224 -1029,-224 -756,-976 -756,-976 -453,-144" fill="none" stroke="#000000" stroke-width="51" stroke-linejoin="round"/>
<polyline points="-1503,-603 -503,-603 -503,-603 -1035,-230 -1035,-230 -762,-982 -762,-982 -459,-150" fill="none" stroke="#000000" stroke-width="51" stroke-linejoin="round"/>
<polyline points="-1500,-600 -500,-600 -500,-600 -1032,-227 -1032,-227 -759,-979 -759,-979 -456,-147" fill="none" stroke="#000000" stroke-width="51" stroke-dasharray="51,102" stroke-linejoin="round"/>
<polyline points="-1500,-600 -500,-600 -500,-600 -1032,-227 -1032,-227 -759,-979 -759,-979 -456,-147" fill="none" stroke="#55ff55" stroke-width="51" stroke-dasharray="51,102" stroke-dashoffset="102" stroke-linejoin="round"/>
<polyline points="-1500,-600 -500,-600 -500,-600 -1032,-227 -1032,-227 -759,-979 -759,-979 -456,-147" fill="none" stroke="#ffffff" stroke-width="51" stroke-dasharray="51,102" stroke-dashoffset="51" stroke-linejoin="round"/>
</g>
</svg>
